<svg id="Layer_1" data-name="Layer 1" xmlns="http://www.w3.org/2000/svg" viewBox="0 0 223.5 8.5"><title>Artboard 1</title><path d="M4.3,5.5l-.1-.3A1.34,1.34,0,0,0,2.7,4.1H2.1V6.4c0,1.6,0,1.8.6,1.8h.9C4.8,8.2,5.4,8,6,6.1l.1-.4h0V8.2H.3C.9,8.2,1,8,1,6.4V2C1,.4.9.2.3.2H5.9V2.4h0l-.2-.5A2.12,2.12,0,0,0,3.3.2H2.6C2.1.2,2,.4,2,2V4.1h.7A1.34,1.34,0,0,0,4.2,3l.1-.3h0V5.5Z"/><path d="M13.8,6.4c0,1.6,0,1.8.6,1.8h1c1.2,0,1.7-.3,2.4-2.4l.1-.4h0V8.3H12c.6,0,.7-.2.7-1.8V2C12.7.4,12.6.2,12,.2h2.4c-.6,0-.7.2-.7,1.8V6.4Z"/><path d="M25.2,6.4c0,1.6.1,1.8.7,1.8H23.5c.6,0,.7-.2.7-1.8V2c0-1.6-.1-1.8-.7-1.8h2.4c-.6,0-.7.2-.7,1.8Z"/><path d="M34.4.2c-1.1,0-1.8.1-2.4,2l-.1.4h0V.2h5.4V.4L32.8,8.3H35c1.2,0,1.8-.2,2.4-2.1l.1-.4h0V8.3H31.6V8.1L36,.2Z"/><path d="M47.2,4.9H44.4l-.2.6a5.66,5.66,0,0,0-.3,1.8c0,.5.1.9.7,1H42.4c.5,0,.7-.2,1.7-2.7L46.2.2h.1l2.5,6.2c.7,1.7.8,1.9,1.3,2H47.6c.8,0,.6-.5,0-1.9Zm-2.8-.1h2.8L45.8,1.2Z"/><path d="M54.9,8.2h.3c.6,0,.7-.2.7-1.8V2c0-1.6-.1-1.8-.7-1.8h3.3c1.5,0,2.8.6,2.8,1.9s-1.3,1.8-2.5,2c1.2.1,3,.6,3,2.2,0,1.4-1.4,2-3.3,2l-3.6-.1ZM57,4.1h1.5c.9,0,1.7-.6,1.7-2A1.67,1.67,0,0,0,58.6.2h-1C57.1.2,57,.4,57,2Zm0,2.3c0,1.6,0,1.8.6,1.8h1a1.75,1.75,0,0,0,2-2,1.9,1.9,0,0,0-2.1-2.1H57Z"/><path d="M71.6,5.5l-.1-.3A1.34,1.34,0,0,0,70,4.1h-.7V6.4c0,1.6,0,1.8.6,1.8h.9c1.2,0,1.8-.2,2.4-2.1l.1-.4h0V8.2H67.6c.6,0,.7-.2.7-1.8V2c0-1.6-.1-1.8-.7-1.8h5.6V2.4h0L73.1,2A2.17,2.17,0,0,0,70.7.3H70c-.5,0-.6.2-.6,1.8V4.2h.7a1.34,1.34,0,0,0,1.5-1.1V2.7h0V5.5Z"/><path d="M83.7,8.2H81c.6,0,.7-.2.7-1.8V2c0-1.6,0-1.8-.6-1.8h-.3c-.4,0-1.2.1-1.8,2l-.1.4h0V.2h6.8V2.6h0l-.1-.4C85,.3,84.1.2,83.8.2h-.5c-.5,0-.6.2-.6,1.8V6.4c0,1.6.1,1.8.7,1.8Z"/><path d="M98.2,6.4c0,1.6.1,1.8.7,1.8H96.5c.6,0,.7-.2.7-1.8V4.1H92.7V6.4c0,1.6.1,1.8.7,1.8H91c.6,0,.7-.2.7-1.8V2C91.7.4,91.6.2,91,.2h2.4c-.6,0-.7.2-.7,1.8V4.1h4.5V2c0-1.6-.1-1.8-.7-1.8h2.4c-.6,0-.7.2-.7,1.8Z"/><path d="M111.3,8.2h.3c.6,0,.7-.2.7-1.8V2c0-1.6-.1-1.8-.7-1.8h5.8V2.6h0l-.1-.4c-.6-1.9-1.4-2-2.4-2H114c-.5,0-.6.2-.6,1.8V4.3h.9a1.34,1.34,0,0,0,1.5-1.1l.1-.3h0v3h0l-.1-.3c-.3-1.2-.9-1.3-1.5-1.3h-1v2c0,1.6.1,1.8,1.1,1.8h-3.1Z"/><path d="M127.1,5.5l-.1-.3a1.34,1.34,0,0,0-1.5-1.1h-.7V6.4c0,1.6,0,1.8.6,1.8h.9c1.2,0,1.8-.2,2.4-2.1l.1-.4h0V8.2H123c.6,0,.7-.2.7-1.8V2c0-1.6-.1-1.8-.7-1.8h5.6V2.4h0l-.1-.4A2.17,2.17,0,0,0,126.1.3h-.7c-.5,0-.6.2-.6,1.8V4.2h.7A1.34,1.34,0,0,0,127,3.1l.1-.3h0V5.5Z"/><path d="M137.9,6.7,140.1,0h.2l2.3,6.8,1.1-3.9a5.54,5.54,0,0,0,.2-1.8c0-.5-.1-.9-.7-1h2c-.4,0-.8.1-1.5,2.7l-1.5,5.5H142l-2.3-6.8-2.2,6.8h-.2l-1.8-6.2c-.5-1.7-.6-1.9-1.1-2h2.4c-.7,0-.7.5-.3,1.9Z"/><path d="M160.8,8.4a2.52,2.52,0,0,1-1.6-.5c-.2-.1-.3-.2-.4-.2-.3,0-.5.3-.8.6h0V5.7h0l.1.4a2.72,2.72,0,0,0,2.7,2.3c1.1,0,1.9-.5,1.9-1.6,0-2.4-4.4-1.9-4.4-4.6A2.19,2.19,0,0,1,160.7.1a2.5,2.5,0,0,1,1.4.4c.2.1.3.2.4.2a1,1,0,0,0,.7-.6h0V2.4h0l-.1-.4A2.5,2.5,0,0,0,160.8.1c-1,0-1.6.5-1.6,1.3,0,2.5,4.5,2,4.5,4.8A2.76,2.76,0,0,1,160.8,8.4Z"/><path d="M173.9,8.2h-2.7c.6,0,.7-.2.7-1.8V2c0-1.6,0-1.8-.6-1.8H171c-.4,0-1.2.1-1.8,2l-.1.4h0V.2h6.8V2.6h0l-.1-.4c-.6-1.9-1.5-2-1.8-2h-.3c-.5,0-.6.2-.6,1.8V6.4c0,1.6.1,1.8.7,1.8Z"/><path d="M188.3,3c0-1-.3-2.8-1.2-2.8h2.2c-.7.1-1,1-1,2.8V5.5c0,1.7-1.2,2.8-3.2,2.8s-3.4-1.1-3.4-2.8V2c0-1.6-.1-1.8-.7-1.8h2.4c-.6,0-.7.2-.7,1.8V5.5a2.4,2.4,0,0,0,2.7,2.6,2.49,2.49,0,0,0,2.7-2.6V3Z"/><path d="M194.1,8.2h.3c.6,0,.7-.2.7-1.8V2c0-1.6-.1-1.8-.7-1.8H198a3.8,3.8,0,0,1,4.1,4,3.91,3.91,0,0,1-4,4.1l-4-.1Zm2.6-8c-.5,0-.6.2-.6,1.8V6.4c0,1.6,0,1.8.6,1.8H198c2,0,2.8-2,2.8-4s-.9-4-2.8-4Z"/><path d="M209.5,6.4c0,1.6.1,1.8.7,1.8h-2.4c.6,0,.7-.2.7-1.8V2c0-1.6-.1-1.8-.7-1.8h2.4c-.6,0-.7.2-.7,1.8Z"/><path d="M219.5,8.4a4,4,0,0,1-4-4.2,3.93,3.93,0,0,1,4-4.2,4,4,0,0,1,4,4.2C223.4,6.4,222,8.4,219.5,8.4Zm0-8.3c-2.1,0-2.7,2-2.7,4.2s.7,4.2,2.7,4.2,2.7-2,2.7-4.2S221.5.1,219.5.1Z"/></svg>