<?xml version="1.0" encoding="utf-8"?>
<!-- Generator: Adobe Illustrator 22.0.1, SVG Export Plug-In . SVG Version: 6.00 Build 0)  -->
<svg version="1.1" id="Layer_1" xmlns="http://www.w3.org/2000/svg" xmlns:xlink="http://www.w3.org/1999/xlink" x="0px" y="0px"
	 width="223.5px" height="8.5px" viewBox="0 0 223.5 8.5" style="enable-background:new 0 0 223.5 8.5;" xml:space="preserve">
<g>
	<g>
		<path d="M4.3,5.5L4.2,5.2c-0.3-1-0.9-1.1-1.5-1.1H2.1v2.3c0,1.6,0,1.8,0.6,1.8h0.9C4.8,8.2,5.4,8,6,6.1l0.1-0.4l0,0v2.5H0l0,0h0.3
			C0.9,8.2,1,8,1,6.4V2c0-1.6-0.1-1.8-0.7-1.8H0l0,0h5.9v2.2l0,0L5.7,1.9C5.2,0.4,4.4,0.2,3.3,0.2H2.6C2.1,0.2,2,0.4,2,2v2.1h0.7
			C3.3,4.1,3.9,4,4.2,3l0.1-0.3l0,0V5.5L4.3,5.5z"/>
		<path d="M13.8,6.4c0,1.6,0,1.8,0.6,1.8h1c1.2,0,1.7-0.3,2.4-2.4l0.1-0.4l0,0v2.9h-6.2l0,0H12c0.6,0,0.7-0.2,0.7-1.8V2
			c0-1.6-0.1-1.8-0.7-1.8h-0.3l0,0h3l0,0h-0.3c-0.6,0-0.7,0.2-0.7,1.8L13.8,6.4L13.8,6.4z"/>
		<path d="M25.2,6.4c0,1.6,0.1,1.8,0.7,1.8h0.3l0,0h-3l0,0h0.3c0.6,0,0.7-0.2,0.7-1.8V2c0-1.6-0.1-1.8-0.7-1.8h-0.3l0,0h3l0,0h-0.3
			c-0.6,0-0.7,0.2-0.7,1.8V6.4z"/>
		<path d="M34.4,0.2c-1.1,0-1.8,0.1-2.4,2l-0.1,0.4l0,0V0.2h5.4v0.2l-4.5,7.9H35c1.2,0,1.8-0.2,2.4-2.1l0.1-0.4l0,0v2.5h-5.9V8.1
			L36,0.2C36,0.2,34.4,0.2,34.4,0.2z"/>
		<path d="M47.2,4.9h-2.8l-0.2,0.6c-0.2,0.6-0.3,1.2-0.3,1.8c0,0.5,0.1,0.9,0.7,1h0.3l0,0h-2.6l0,0h0.1c0.5,0,0.7-0.2,1.7-2.7
			l2.1-5.4h0.1l2.5,6.2c0.7,1.7,0.8,1.9,1.3,2h0.1l0,0h-2.9l0,0h0.3c0.8,0,0.6-0.5,0-1.9L47.2,4.9z M44.4,4.8h2.8l-1.4-3.6L44.4,4.8
			z"/>
		<path d="M54.9,8.2h0.3c0.6,0,0.7-0.2,0.7-1.8V2c0-1.6-0.1-1.8-0.7-1.8h-0.3l0,0h3.6c1.5,0,2.8,0.6,2.8,1.9c0,1.2-1.3,1.8-2.5,2
			c1.2,0.1,3,0.6,3,2.2c0,1.4-1.4,2-3.3,2L54.9,8.2L54.9,8.2z M57,4.1h1.5c0.9,0,1.7-0.6,1.7-2c0-1.3-0.8-1.9-1.6-1.9h-1
			C57.1,0.2,57,0.4,57,2C57,2,57,4.1,57,4.1z M57,6.4c0,1.6,0,1.8,0.6,1.8h1c1.2,0,2-0.5,2-2c0-1.3-0.7-2.1-2.1-2.1H57V6.4z"/>
		<path d="M71.6,5.5l-0.1-0.3c-0.3-1-0.9-1.1-1.5-1.1h-0.7v2.3c0,1.6,0,1.8,0.6,1.8h0.9c1.2,0,1.8-0.2,2.4-2.1l0.1-0.4l0,0v2.5h-6
			l0,0h0.3c0.6,0,0.7-0.2,0.7-1.8V2c0-1.6-0.1-1.8-0.7-1.8h-0.3l0,0h5.9v2.2l0,0L73.1,2c-0.5-1.5-1.4-1.7-2.4-1.7H70
			c-0.5,0-0.6,0.2-0.6,1.8v2.1h0.7c0.6,0,1.2-0.1,1.5-1.1V2.7l0,0V5.5L71.6,5.5z"/>
		<path d="M83.7,8.2h-3l0,0H81c0.6,0,0.7-0.2,0.7-1.8V2c0-1.6,0-1.8-0.6-1.8h-0.3c-0.4,0-1.2,0.1-1.8,2l-0.1,0.4l0,0V0.2h6.8v2.4
			l0,0l-0.1-0.4c-0.6-1.9-1.5-2-1.8-2h-0.5c-0.5,0-0.6,0.2-0.6,1.8v4.4c0,1.6,0.1,1.8,0.7,1.8L83.7,8.2L83.7,8.2z"/>
		<path d="M98.2,6.4c0,1.6,0.1,1.8,0.7,1.8h0.3l0,0h-3l0,0h0.3c0.6,0,0.7-0.2,0.7-1.8V4.1h-4.5v2.3c0,1.6,0.1,1.8,0.7,1.8h0.3l0,0
			h-3l0,0H91c0.6,0,0.7-0.2,0.7-1.8V2c0-1.6-0.1-1.8-0.7-1.8h-0.3l0,0h3l0,0h-0.3c-0.6,0-0.7,0.2-0.7,1.8v2.1h4.5V2
			c0-1.6-0.1-1.8-0.7-1.8h-0.3l0,0h3l0,0h-0.3c-0.6,0-0.7,0.2-0.7,1.8V6.4z"/>
		<path d="M111.3,8.2L111.3,8.2h0.3c0.6,0,0.7-0.2,0.7-1.8V2c0-1.6-0.1-1.8-0.7-1.8h-0.3l0,0h6.1v2.4l0,0l-0.1-0.4
			c-0.6-1.9-1.4-2-2.4-2H114c-0.5,0-0.6,0.2-0.6,1.8v2.3h0.9c0.6,0,1.2-0.1,1.5-1.1l0.1-0.3l0,0v3l0,0l-0.1-0.3
			c-0.3-1.2-0.9-1.3-1.5-1.3h-1v2c0,1.6,0.1,1.8,1.1,1.8h0.3l0,0h-3.4V8.2z"/>
		<path d="M127.1,5.5L127,5.2c-0.3-1-0.9-1.1-1.5-1.1h-0.7v2.3c0,1.6,0,1.8,0.6,1.8h0.9c1.2,0,1.8-0.2,2.4-2.1l0.1-0.4l0,0v2.5h-6.1
			l0,0h0.3c0.6,0,0.7-0.2,0.7-1.8V2c0-1.6-0.1-1.8-0.7-1.8h-0.3l0,0h5.9v2.2l0,0L128.5,2c-0.5-1.5-1.4-1.7-2.4-1.7h-0.7
			c-0.5,0-0.6,0.2-0.6,1.8v2.1h0.7c0.6,0,1.2-0.1,1.5-1.1l0.1-0.3l0,0L127.1,5.5L127.1,5.5z"/>
		<path d="M137.9,6.7l2.2-6.7h0.2l2.3,6.8l1.1-3.9c0.2-0.6,0.2-1.2,0.2-1.8c0-0.5-0.1-0.9-0.7-1h-0.3l0,0h2.4l0,0h-0.1
			c-0.4,0-0.8,0.1-1.5,2.7l-1.5,5.5H142l-2.3-6.8l-2.2,6.8h-0.2l-1.8-6.2c-0.5-1.7-0.6-1.9-1.1-2h-0.1l0,0h2.8l0,0h-0.3
			c-0.7,0-0.7,0.5-0.3,1.9L137.9,6.7z"/>
		<path d="M160.8,8.4c-0.5,0-1.1-0.1-1.6-0.5c-0.2-0.1-0.3-0.2-0.4-0.2c-0.3,0-0.5,0.3-0.8,0.6l0,0V5.7l0,0l0.1,0.4
			C158.3,7.1,159.1,8.4,160.8,8.4c1.1,0,1.9-0.5,1.9-1.6c0-2.4-4.4-1.9-4.4-4.6c0-1.3,1.1-2.1,2.4-2.1c0.5,0,0.9,0.1,1.4,0.4
			c0.2,0.1,0.3,0.2,0.4,0.2c0.2,0,0.5-0.2,0.7-0.6l0,0v2.3l0,0L163.1,2c-0.4-1.2-1.3-1.9-2.3-1.9s-1.6,0.5-1.6,1.3
			c0,2.5,4.5,2,4.5,4.8C163.5,7.5,162.3,8.4,160.8,8.4z"/>
		<path d="M173.9,8.2h-3l0,0h0.3c0.6,0,0.7-0.2,0.7-1.8V2c0-1.6,0-1.8-0.6-1.8H171c-0.4,0-1.2,0.1-1.8,2l-0.1,0.4l0,0V0.2h6.8v2.4
			l0,0l-0.1-0.4c-0.6-1.9-1.5-2-1.8-2h-0.3c-0.5,0-0.6,0.2-0.6,1.8v4.4c0,1.6,0.1,1.8,0.7,1.8L173.9,8.2L173.9,8.2z"/>
		<path d="M188.3,3c0-1-0.3-2.8-1.2-2.8h-0.3l0,0h2.6l0,0h-0.1C188.6,0.3,188.3,1.2,188.3,3v2.5c0,1.7-1.2,2.8-3.2,2.8
			c-2.1,0-3.4-1.1-3.4-2.8V2c0-1.6-0.1-1.8-0.7-1.8h-0.3l0,0h3l0,0h-0.3c-0.6,0-0.7,0.2-0.7,1.8v3.5c0,1.6,0.9,2.6,2.7,2.6
			s2.7-1.2,2.7-2.6V3H188.3z"/>
		<path d="M194.1,8.2h0.3c0.6,0,0.7-0.2,0.7-1.8V2c0-1.6-0.1-1.8-0.7-1.8h-0.3l0,0h3.9c2.7,0,4.1,1.8,4.1,4s-1.5,4.1-4,4.1
			L194.1,8.2L194.1,8.2z M196.7,0.2c-0.5,0-0.6,0.2-0.6,1.8v4.4c0,1.6,0,1.8,0.6,1.8h1.3c2,0,2.8-2,2.8-4c0-2.1-0.9-4-2.8-4
			C198,0.2,196.7,0.2,196.7,0.2z"/>
		<path d="M209.5,6.4c0,1.6,0.1,1.8,0.7,1.8h0.3l0,0h-3l0,0h0.3c0.6,0,0.7-0.2,0.7-1.8V2c0-1.6-0.1-1.8-0.7-1.8h-0.3l0,0h3l0,0h-0.3
			c-0.6,0-0.7,0.2-0.7,1.8V6.4z"/>
		<path d="M219.5,8.4c-2.5,0-4-2-4-4.2s1.4-4.2,4-4.2c2.5,0,4,2,4,4.2C223.4,6.4,222,8.4,219.5,8.4z M219.5,0.1
			c-2.1,0-2.7,2-2.7,4.2s0.7,4.2,2.7,4.2c2.1,0,2.7-2,2.7-4.2C222.2,2,221.5,0.1,219.5,0.1z"/>
	</g>
</g>
</svg>
